<?xml version="1.0" encoding="UTF-8"?>
<svg id="Layer_2" data-name="Layer 2" xmlns="http://www.w3.org/2000/svg" viewBox="0 0 1882.71 261">
  <defs>
    <style>
      .cls-1 {
        fill: #232323;
      }

      .cls-2 {
        fill: #7f0404;
      }

      .cls-3 {
        fill: #cd0202;
        isolation: isolate;
        opacity: .9;
      }

      .cls-4 {
        fill: #a50404;
      }
    </style>
  </defs>
  <g id="Layer_2-2" data-name="Layer 2">
    <g>
      <g>
        <polygon class="cls-3" points="1041.97 99.45 1041.97 161.55 1095.76 192.61 1095.76 130.5 1041.97 99.45"/>
        <polygon class="cls-4" points="1095.76 68.39 1095.76 68.39 1041.97 99.45 1095.76 130.5 1149.54 99.45 1095.76 68.39"/>
        <polygon class="cls-2" points="1149.54 99.45 1095.76 130.5 1095.76 192.61 1095.76 192.61 1149.54 161.55 1149.54 99.45"/>
        <path class="cls-1" d="M1095.76,196.41l-57.08-32.95v-65.91l57.08-32.95,57.08,32.95v65.91s-57.08,32.95-57.08,32.95ZM1043.23,160.83l52.53,30.33,52.53-30.33v-60.66l-52.53-30.33-52.53,30.33s0,60.66,0,60.66Z"/>
        <path class="cls-1" d="M1095.76,261l-113.02-65.25V65.25L1095.76,0l113.02,65.25v130.5l-113.02,65.25ZM989.56,191.81l106.2,61.31,106.2-61.31v-122.62l-106.2-61.31-106.2,61.31v122.62Z"/>
        <rect class="cls-1" x="1094.62" y="3.94" width="2.27" height="63.28"/>
        <rect class="cls-1" x="981.89" y="176.83" width="63.28" height="2.27" transform="translate(46.74 530.44) rotate(-29.99)"/>
        <rect class="cls-1" x="1176.82" y="146.33" width="2.27" height="63.28" transform="translate(434.85 1109.12) rotate(-60)"/>
        <rect class="cls-1" x="1094.62" y="130.5" width="2.27" height="126.56"/>
        <rect class="cls-1" x="1087.27" y="97.74" width="126.56" height="2.27" transform="translate(104.62 588.34) rotate(-29.99)"/>
        <rect class="cls-1" x="1039.82" y="35.57" width="2.27" height="126.56" transform="translate(434.86 950.92) rotate(-60)"/>
      </g>
      <g>
        <path class="cls-1" d="M1452.51,176.52h-22.67v-75.93l-33.74,75.93h-21.3l-31.69-75.93v75.93h-22.53v-92.19h39.88l26.09,62.69,27.59-62.69h38.38v92.19h-.01Z"/>
        <path class="cls-1" d="M1576.47,103.32h-74.7v16.25h65.56v19.26h-65.56v16.66h76.62v21.03h-99.02v-92.19h97.1v18.98h0Z"/>
        <path class="cls-1" d="M1708.95,176.52h-31l-24.99-35.24h-27.32v35.24h-22.26v-92.19h71.97c22.81,0,34.14,10.92,34.14,28.54,0,15.84-9.29,26.22-28.27,28.27l27.72,35.37h.01ZM1625.64,104.27v16.53h49.58c6.55,0,10.79-2.87,10.79-8.6,0-5.19-4.23-7.92-10.79-7.92h-49.58Z"/>
        <path class="cls-1" d="M1758.75,176.52h-22.4v-92.19h22.4v92.19Z"/>
        <path class="cls-1" d="M1882.71,104.96h-37.42v71.56h-22.26v-71.56h-37.42v-20.62h97.1v20.62Z"/>
      </g>
      <g>
        <path class="cls-1" d="M110.27,127.96c9.48,5.1,14.44,11.91,14.3,22.56-.09,6.19-1.56,12.11-5.79,16.77-6.16,6.78-13.61,8.99-22.72,9.65l-96.05-.02v-92.56s94.59,0,94.59,0c5.13.64,9.79,1.7,14.18,4.2,6.57,3.75,10.93,10.19,11.52,17.77.78,9.96-1.61,15.49-10.02,21.62ZM94.55,113.45c.2-3.01-1.44-5.59-4.48-5.97l-2.89-.36H25.98s0,13.49,0,13.49h62.71c2.08-.09,3.91-.88,5.03-2.54.89-1.3.71-2.92.83-4.62ZM98.4,144.33c-.61-2.57-2.74-3.67-5.36-4.29H25.98s0,13.98,0,13.98h66.19c1.4-.21,2.56-.5,3.7-1.1,2.84-1.47,3.28-5.36,2.52-8.59Z"/>
        <path class="cls-1" d="M719.31,128.27c2.91,1.29,5.22,3.01,7.4,5.19,6.14,5.91,7.5,13.63,6.28,21.95-1.08,7.38-5.46,13.62-12,17.2-4.9,2.9-10.31,3.85-16.04,4.34h-96.15s-.02-92.56-.02-92.56h94.7c5.66.73,10.86,1.99,15.52,5.1,5.45,3.66,9.15,9.15,9.92,15.74.89,7.6-.15,14.54-6.17,19.71l-2.15,1.85-.3.21-1.1.75.11.52ZM703.41,114.18c-.05-2.03-.2-4.06-1.74-5.42-1.34-1.18-3.1-1.3-4.97-1.66h-61.96s-.03,13.5-.03,13.5h63.5c3.45-.62,5.29-2.93,5.2-6.42ZM705.4,141.49c-1.17-.84-2.53-1.22-4.07-1.46h-66.62s0,13.99,0,13.99h66.54c2.42-.44,4.44-1.19,5.56-3.35,1-1.92,1.17-7.33-1.41-9.18Z"/>
        <path class="cls-1" d="M259.7,84.36v66.36c-.14,6.68-2.3,12.79-6.92,17.67-5.03,5.31-12.19,8.44-19.75,8.44l-66.95.06c-4.38,0-8.52-1.19-12.32-2.93-9.1-4.17-14.32-12.91-14.75-22.87l-.04-66.72h25.97s0,62.83,0,62.83c.66,3.59,3.2,6.77,7.07,6.77l54.85.05c4.16-.58,6.7-3.51,7.05-7.66v-61.99s25.79,0,25.79,0Z"/>
        <polygon class="cls-1" points="481.42 176.94 455.44 176.92 455.44 107.11 405.74 107.1 405.71 84.35 531.12 84.35 531.11 107.1 481.42 107.11 481.42 176.94"/>
        <path class="cls-1" d="M870.94,84.41l-56.61,61.75-.04,30.8h-25.92s-.03-30.75-.03-30.75l-34.57-37.71-2.92-3.17-15.86-17.31-2.84-3.08-.3-.46c-.05-.08.38-.11.55-.12l32.38-.03,36.53,41.24,36.53-41.24,33.1.08Z"/>
        <polygon class="cls-1" points="433.92 154.01 433.95 176.95 324.87 176.94 324.84 84.36 350.72 84.36 350.73 154 433.92 154.01"/>
        <rect class="cls-1" x="278.96" y="84.35" width="25.99" height="92.61"/>
      </g>
    </g>
  </g>
</svg>