<?xml version="1.0" encoding="UTF-8" standalone="no"?>
<!-- Created with Inkscape (http://www.inkscape.org/) -->

<svg
   width="101.86666mm"
   height="23.590248mm"
   viewBox="0 0 101.86666 23.590248"
   version="1.1"
   id="svg1"
   sodipodi:docname="kobaru-path.svg"
   inkscape:version="1.4.2 (ebf0e940d0, 2025-05-08)"
   xmlns:inkscape="http://www.inkscape.org/namespaces/inkscape"
   xmlns:sodipodi="http://sodipodi.sourceforge.net/DTD/sodipodi-0.dtd"
   xmlns="http://www.w3.org/2000/svg"
   xmlns:svg="http://www.w3.org/2000/svg">
  <sodipodi:namedview
     id="namedview1"
     pagecolor="#ffffff"
     bordercolor="#000000"
     borderopacity="0.25"
     inkscape:showpageshadow="2"
     inkscape:pageopacity="0.0"
     inkscape:pagecheckerboard="0"
     inkscape:deskcolor="#d1d1d1"
     inkscape:document-units="mm"
     inkscape:zoom="5.7245586"
     inkscape:cx="192.41658"
     inkscape:cy="44.632262"
     inkscape:window-width="2752"
     inkscape:window-height="1074"
     inkscape:window-x="0"
     inkscape:window-y="0"
     inkscape:window-maximized="1"
     inkscape:current-layer="layer1" />
  <defs
     id="defs1" />
  <g
     id="layer1"
     transform="translate(-55.436258,-37.564132)">
    <path
       style="font-weight:600;font-size:31.75px;font-family:Geom;-inkscape-font-specification:'Geom Semi-Bold';fill:#7ccf00;stroke-width:0.264583"
       d="m 55.436257,60.773411 v -23.20925 h 4.318 v 13.04925 l 5.23875,-6.096 h 5.11175 l -6.477,7.08025 6.69925,9.17575 h -4.92125 l -5.6515,-7.90575 v 7.90575 z m 24.301449,0.381 q -2.54,0 -4.54025,-1.143 -1.9685,-1.143 -3.1115,-3.07975 -1.143,-1.93675 -1.143,-4.2545 0,-1.778 0.66675,-3.302 0.66675,-1.55575 1.8415,-2.7305 1.2065,-1.17475 2.82575,-1.8415 1.61925,-0.66675 3.52425,-0.66675 2.57175,0 4.54025,1.143 2.00025,1.143 3.14325,3.07975 1.17475,1.905 1.17475,4.2545 0,1.8415 -0.6985,3.39725 -0.6985,1.55575 -1.93675,2.69875 -1.2065,1.143 -2.82575,1.80975 -1.61925,0.635 -3.46075,0.635 z m 0.0635,-3.683 q 1.36525,0 2.38125,-0.66675 1.04775,-0.66675 1.61925,-1.74625 0.60325,-1.11125 0.60325,-2.38125 0,-1.3335 -0.60325,-2.413 -0.60325,-1.11125 -1.651,-1.778 -1.016,-0.6985 -2.413,-0.6985 -1.36525,0 -2.413,0.66675 -1.016,0.635 -1.5875,1.74625 -0.53975,1.0795 -0.53975,2.413 0,1.36525 0.60325,2.4765 0.60325,1.0795 1.651,1.74625 1.04775,0.635 2.3495,0.635 z m 21.621744,3.65125 q -3.333751,0 -5.397501,-2.50825 l -4.445,2.31775 v -23.368 h 4.318 v 9.49325 q 0.9525,-1.23825 2.286,-2.06375 1.3335,-0.85725 3.270251,-0.85725 2.06375,0 3.77825,1.04775 1.7145,1.04775 2.7305,2.95275 1.04775,1.905 1.04775,4.5085 0,2.57175 -1.04775,4.47675 -1.04775,1.905 -2.76225,2.95275 -1.7145,1.04775 -3.77825,1.04775 z m -1.17475,-3.6195 q 1.30175,0 2.286,-0.60325 1.016,-0.635 1.61925,-1.7145 0.60325,-1.11125 0.60325,-2.54 0,-1.30175 -0.5715,-2.38125 -0.53975,-1.11125 -1.55575,-1.778 -0.98425,-0.66675 -2.38125,-0.66675 -1.206501,0 -2.222501,0.635 -1.016,0.60325 -1.61925,1.7145 -0.60325,1.0795 -0.60325,2.4765 0,1.397 0.60325,2.50825 0.60325,1.0795 1.61925,1.7145 1.016,0.635 2.222501,0.635 z m 16.92277,3.6195 q -1.5875,0 -2.9845,-0.635 -1.397,-0.635 -2.286,-1.87325 -0.85725,-1.27 -0.85725,-3.048 0,-1.42875 0.53975,-2.413 0.53975,-1.016 1.4605,-1.651 0.9525,-0.635 2.159,-0.92075 1.2065,-0.28575 2.54,-0.28575 1.30175,0 2.4765,0.22225 1.17475,0.22225 2.06375,0.66675 v -0.47625 q 0,-1.651 -1.17475,-2.3495 -1.17475,-0.6985 -3.2385,-0.6985 -1.397,0 -2.76225,0.28575 -1.36525,0.28575 -2.794,1.016 v -3.39725 q 1.30175,-0.508 2.8575,-0.92075 1.5875,-0.41275 3.556,-0.41275 2.413,0 4.1275,0.762 1.74625,0.762 2.69875,2.25425 0.9525,1.49225 0.9525,3.683 v 10.033 l -4.28625,-1.8415 q -0.98425,0.9525 -2.19075,1.49225 -1.2065,0.508 -2.8575,0.508 z m 1.42875,-2.95275 q 1.143,0 2.032,-0.381 0.92075,-0.41275 1.651,-1.17475 v -2.9845 q -0.60325,-0.3175 -1.4605,-0.5715 -0.8255,-0.254 -1.905,-0.254 -0.9525,0 -1.778,0.3175 -0.8255,0.28575 -1.36525,0.889 -0.508,0.60325 -0.508,1.49225 0,0.85725 0.4445,1.4605 0.47625,0.60325 1.23825,0.92075 0.762,0.28575 1.651,0.28575 z m 11.71575,2.6035 v -16.256 l 4.34975,2.6035 q 0.79375,-1.36525 2.032,-2.12725 1.23825,-0.762 2.88925,-0.762 0.22225,0 0.41275,0.03175 0.22225,0.03175 0.41275,0.0635 v 4.3815 q -0.1905,-0.09525 -0.4445,-0.127 -0.254,-0.03175 -0.508,-0.03175 -1.30175,0 -2.413,0.53975 -1.0795,0.53975 -1.74625,1.7145 -0.66675,1.17475 -0.66675,2.9845 v 6.985 z m 17.62122,0.34925 q -2.88925,0 -4.28625,-1.7145 -1.397,-1.7145 -1.397,-4.445 v -10.44575 h 4.318 v 9.0805 q 0,1.3335 0.41275,2.159 0.4445,0.79375 1.143,1.17475 0.73025,0.34925 1.524,0.34925 0.8255,0 1.5875,-0.34925 0.762,-0.34925 1.23825,-1.17475 0.508,-0.8255 0.508,-2.159 v -9.0805 h 4.318 v 16.4465 l -4.318,-2.159 q -0.8255,1.016 -2.06375,1.68275 -1.23825,0.635 -2.9845,0.635 z"
       id="text1"
       aria-label="kobaru" />
  </g>
</svg>
