<?xml version="1.0" encoding="UTF-8"?><svg id="Layer_1" xmlns="http://www.w3.org/2000/svg" viewBox="0 0 510 610"><defs><style>.cls-1{fill:#53662f;stroke-width:0px;}</style></defs><path class="cls-1" d="M484.43,305.25c16.2-26.27,25.57-57.19,25.57-90.25,0-82.99-58.91-152.46-137.1-168.83-.44-.22-.88-.46-1.32-.68C340.86,17.27,299.91,0,255,0s-86.32,17.47-117.1,45.99C59.31,62.06,0,131.73,0,215c0,26.86,6.18,52.31,17.18,75C6.18,312.69,0,338.14,0,365c0,69.87,41.78,130.13,101.65,157.22,24.05,28,56.9,48.23,94.23,56.33,28.07,19.78,62.25,31.45,99.12,31.45,95.12,0,172.5-77.38,172.5-172.5,0-5.99-.31-11.91-.91-17.74,13.33-24.46,20.91-52.49,20.91-82.26,0-11.02-1.08-21.79-3.07-32.25ZM495,215c0,24.77-5.77,48.22-16,69.09-4.4-13.47-10.4-26.21-17.8-38,4.08-14.69,6.31-30.13,6.31-46.1,0-46.47-18.5-88.67-48.48-119.72,45.51,27.64,75.98,77.69,75.98,134.72ZM202.01,564.51c-10.62-7.8-20.25-16.88-28.61-27.03,37.26-.19,71.74-12.27,99.89-32.61,13.37,3.33,27.34,5.13,41.72,5.13s29.57-1.93,43.46-5.55c-28.76,38.26-74.51,63.05-125.96,63.05-10.43,0-20.62-1.04-30.49-2.99ZM110.85,509.92c-22.39-27.21-35.85-62.02-35.85-99.92,0-3.39.14-6.74.36-10.08,12.29,20.04,28.57,37.35,47.71,50.9,1.91,24.8,9.03,48.16,20.35,68.94-11.32-2.12-22.23-5.43-32.56-9.84ZM97.5,172.5c0-44.06,18.21-83.93,47.47-112.54,8.95-1.59,18.14-2.46,27.53-2.46,7.82,0,15.51.59,23.03,1.7-28.56,20.23-50.73,48.9-62.82,82.37-10.88,12.43-20,26.43-26.98,41.61-2.47,2.28-4.86,4.64-7.2,7.06-.66-5.83-1.03-11.74-1.03-17.74ZM449.63,229.83c-6.43-8.02-13.56-15.46-21.3-22.22-.86-3.01-1.8-5.98-2.82-8.92,1.31-8.54,1.99-17.29,1.99-26.19,0-30.95-8.23-60-22.57-85.14,29.32,28.62,47.57,68.53,47.57,112.64,0,10.2-1.01,20.17-2.87,29.83ZM270.13,488.45c-7.27-2.17-14.32-4.85-21.11-7.99,14.85-2.3,29.06-6.53,42.41-12.37-6.45,7.43-13.58,14.25-21.29,20.36ZM137.5,437.5c0-18.21,3.14-35.69,8.85-51.98,1.03.16,2.08.26,3.11.4,9.14,31.2,26.85,58.77,50.44,79.94-22.67-3.27-43.79-11.4-62.28-23.28-.05-1.69-.13-3.37-.13-5.07ZM200.63,110.18c-7.68,10-14.27,20.86-19.64,32.4-13.12,3.25-25.64,8.02-37.39,14.1.73-2.54,1.51-5.05,2.36-7.53,15.11-16.62,33.73-29.99,54.66-38.97ZM412.43,169.86c-26.26-46.07-73.11-78.9-127.95-85.91-4.65-3.98-9.49-7.72-14.54-11.19,20.49-9.77,43.39-15.26,67.56-15.26,9.4,0,18.59.87,27.53,2.46,28.67,28.04,46.69,66.9,47.4,109.9ZM398.29,318.75c-1.24,1.08-2.48,2.16-3.75,3.2.14-2.04.25-4.09.31-6.16,1.17.96,2.3,1.96,3.44,2.96ZM108.73,221.04c4.72-2.1,9.55-3.97,14.5-5.6,1.62,18.15,6.02,35.5,12.84,51.61-1.51,1.02-2.98,2.1-4.45,3.17-10.14-12.77-18.35-27.13-24.16-42.67.39-2.18.81-4.35,1.28-6.5ZM122.96,188.05c-.27,3.93-.46,7.87-.46,11.87-2.88.88-5.74,1.81-8.56,2.83,1.26-3.57,2.64-7.08,4.14-10.53,1.6-1.42,3.21-2.82,4.87-4.17ZM161.37,372.06c-1.01-4.5-1.83-9.08-2.45-13.72,6.17-10.57,13.54-20.36,21.92-29.18,15.06,13.33,32.45,24.05,51.49,31.5-18.46,7.61-38.66,11.84-59.83,11.84-3.75,0-7.45-.18-11.13-.44ZM330,215c0,16.71-2.64,32.8-7.48,47.92-6.14-3.77-12.56-7.14-19.17-10.14-18.86-21.96-43.12-39.15-70.73-49.45,23.03-14.19,49.97-22.59,78.8-23.24,6.01,4.12,11.72,8.64,17.09,13.53.95,7,1.49,14.12,1.49,21.38ZM294.03,265.02c-34.37.19-66.37,10.5-93.22,28.07-6.04-10.54-10.9-21.82-14.4-33.7,14.58-4.47,30.06-6.89,46.09-6.89,21.82,0,42.62,4.47,61.53,12.52ZM173.5,268.41c3.84,11.77,8.92,22.98,15.07,33.49-2.64,2.08-5.22,4.22-7.74,6.44-5.71-6.01-10.96-12.46-15.67-19.31,2.3-7.11,5.09-13.99,8.34-20.62ZM193.28,317.39c1.14-.97,2.3-1.92,3.47-2.85,1.44,2.03,2.92,4.02,4.44,5.99-2.67-.97-5.3-2.02-7.9-3.13ZM248.48,344.83c2.17.08,4.34.17,6.52.17s4.36-.08,6.52-.17c-2.14,1.47-4.31,2.89-6.52,4.26-2.21-1.37-4.39-2.79-6.52-4.26ZM289.6,341.51c12.68-2.59,24.84-6.62,36.35-11.84,1.79,7.79,3,15.79,3.59,23.97-11.13,2.5-22.68,3.86-34.55,3.86-7.82,0-15.51-.59-23.03-1.7,6.19-4.38,12.08-9.15,17.63-14.29ZM308.82,320.52c3.51-4.52,6.8-9.22,9.85-14.08,1.14,2.84,2.2,5.71,3.17,8.63-4.25,2-8.58,3.83-13.03,5.45ZM282.53,327.54c-8.95,1.59-18.14,2.46-27.53,2.46s-18.59-.87-27.53-2.46c-6.83-6.68-13.05-13.99-18.59-21.81,24.77-16.24,54.35-25.73,86.12-25.73,3.44,0,6.84.15,10.23.37,2.01,3.15,3.95,6.34,5.74,9.63-7.57,13.92-17.2,26.55-28.43,37.54ZM270.38,241.74c-12.2-2.74-24.86-4.24-37.88-4.24-15.01,0-29.57,1.93-43.46,5.55,8.15-10.85,17.7-20.58,28.32-29.01,19.52,5.81,37.45,15.31,53.01,27.69ZM180.69,229.43c-.43-4.76-.69-9.56-.69-14.43,0-2.45.07-4.88.19-7.3,6.43.31,12.75,1.04,18.96,2.11-6.66,6.04-12.81,12.62-18.46,19.63ZM168.07,247.25c-.74,1.2-1.44,2.42-2.15,3.63-5.79,2.43-11.42,5.19-16.87,8.22-6.06-14.92-9.89-30.96-11.09-47.73,8.83-1.98,17.92-3.25,27.23-3.68-.1,2.43-.19,4.86-.19,7.31,0,11.02,1.08,21.79,3.07,32.25ZM329.9,368.95c-.03,1.12-.03,2.24-.09,3.36-4.42-.21-8.78-.65-13.1-1.22,4.45-.56,8.85-1.24,13.19-2.14ZM345,365.09c10.05-3.05,19.71-7.01,28.89-11.76-1.58,5.5-3.44,10.89-5.58,16.13-7.65,1.52-15.5,2.49-23.5,2.86.1-2.4.18-4.81.18-7.23ZM344.27,349.56c-.82-9.19-2.34-18.17-4.55-26.89,5.59-3.17,10.98-6.63,16.16-10.38,6.16,7.76,11.6,16.11,16.23,24.96-8.8,4.96-18.11,9.1-27.85,12.32ZM335.26,307.94c-2.16-6.14-4.63-12.14-7.44-17.94.62-1.28,1.18-2.58,1.77-3.88,5.8,4.56,11.28,9.51,16.38,14.82-3.47,2.47-7.04,4.81-10.72,7ZM214.22,197.63c-10.53-2.63-21.43-4.3-32.62-4.89,1.84-12.97,5.27-25.44,10.09-37.2,9.97-1.99,20.27-3.05,30.81-3.05,23.55,0,45.9,5.23,65.98,14.54-27.41,4.25-52.69,15-74.26,30.59ZM166.5,192.65c-9.86.34-19.52,1.47-28.9,3.4.17-6.67.7-13.24,1.68-19.68,10.77-6.73,22.41-12.2,34.71-16.19-3.5,10.42-6.03,21.28-7.49,32.47ZM142.64,280.76c.78,1.47,1.6,2.92,2.43,4.37-1.2-1.17-2.38-2.37-3.54-3.58.37-.26.74-.53,1.11-.79ZM167.72,321.2c-3.56,3.89-6.92,7.95-10.12,12.15.16-5.95.63-11.82,1.43-17.58,2.83,1.9,5.74,3.7,8.69,5.44ZM253.26,367.37c2.1.52,4.21,1.02,6.34,1.47,20.87,10.61,44.14,17.14,68.8,18.43-.56,3.95-1.28,7.85-2.13,11.7-19.51,8.68-41.08,13.54-63.77,13.54-31.37,0-60.6-9.25-85.17-25.12,27.37-.76,53.16-7.89,75.93-20.01ZM343.5,387.35c1.51-.05,3.02-.11,4.53-.2-1.62,1.05-3.24,2.09-4.89,3.08.14-.95.24-1.92.37-2.88ZM380,310c0,3.39-.14,6.74-.36,10.08-3.65-5.95-7.68-11.65-12-17.1,1.23-1.06,2.46-2.11,3.66-3.2,2.92,1.62,5.77,3.35,8.57,5.15.05,1.69.13,3.37.13,5.07ZM368.53,281.5c-10.33-4.89-21.23-8.77-32.56-11.54,5.82-17.28,9.03-35.74,9.03-54.96,0-1.33-.07-2.65-.1-3.97,14.58,18,25.26,39.27,30.8,62.51-2.29,2.74-4.69,5.38-7.17,7.95ZM342.57,186.32c-.22-1.33-.46-2.66-.71-3.98,24.36,4.21,46.82,14.01,66,28.06-4.27,17.22-11.39,33.33-20.82,47.8-8.71-27.59-24.19-52.19-44.47-71.88ZM338.04,166.58c-6.95-23.72-18.86-45.33-34.55-63.64,46.16,12.45,83.96,45.4,103.05,88.45-20.38-12.81-43.6-21.47-68.5-24.81ZM257.67,82.62c-1.91.05-3.81.11-5.71.23,1.01-.65,2.01-1.31,3.03-1.95.9.56,1.78,1.14,2.67,1.72ZM262.5,97.5c5.28,0,10.49.27,15.63.78,19.85,17.98,35.07,40.95,43.74,66.89-2.02-.08-4.04-.15-6.08-.15-26.92-17.38-58.94-27.52-93.29-27.52-7.78,0-15.42.57-22.93,1.57,7.79-14.1,17.7-26.86,29.26-37.91,10.86-2.37,22.11-3.66,33.67-3.66ZM119.86,279.52c-3.79,3.28-7.44,6.71-10.93,10.3-2.35-10.38-3.68-21.14-3.86-32.18,4.38,7.68,9.33,14.99,14.79,21.88ZM129.68,290.85c4.97,5.26,10.23,10.23,15.82,14.83-1.93,10.32-2.99,20.95-2.99,31.82,0,5.99.31,11.91.91,17.74-.3.55-.57,1.11-.86,1.66-12.48-14.67-22.32-31.65-28.79-50.2,4.92-5.65,10.24-10.95,15.92-15.85ZM131.51,367.06c-15.65-4.22-30.32-10.81-43.65-19.34,4.15-9.59,9.22-18.68,15.11-27.18,7.03,17.05,16.72,32.71,28.54,46.51ZM226.08,467.41c-24-16.48-43.2-39.42-55.11-66.3,26.55,16.69,57.92,26.39,91.53,26.39,20.55,0,40.26-3.63,58.55-10.25-2.83,8.02-6.27,15.76-10.31,23.14-24.27,16.48-53.36,26.32-84.67,27.02ZM339.16,409.47c3.15-1.57,6.24-3.24,9.27-4.99-3.71,4.94-7.73,9.62-11.99,14.09.98-3,1.89-6.03,2.71-9.09ZM391.69,343.6c.06-.31.11-.63.17-.94.89-.6,1.75-1.25,2.62-1.87-.8,1.23-1.61,2.45-2.45,3.66-.12-.28-.22-.57-.34-.86ZM409.16,308.34c-4.69-4.15-9.61-8.04-14.72-11.66-.5-6.55-1.36-13.01-2.58-19.34,11.06-14.41,19.9-30.6,26-48.08,1.38,8.38,2.14,16.97,2.14,25.74,0,17.79-3.01,34.89-8.47,50.85-.77.85-1.58,1.65-2.37,2.48ZM433.69,234.15c3.97,4.56,7.7,9.33,11.14,14.33-2.89,8.92-6.55,17.51-10.92,25.66.7-6.29,1.09-12.66,1.09-19.13,0-7.06-.48-14.01-1.31-20.85ZM255,63.55c-6.37-3.48-13-6.54-19.83-9.21,18.46-7.61,38.66-11.84,59.83-11.84,7.05,0,13.98.51,20.79,1.41-21.77,2.75-42.31,9.53-60.79,19.63ZM240.06,72.76c-6.53,4.49-12.75,9.4-18.6,14.72-21.3,5.22-41.05,14.41-58.44,26.73,13.51-20.71,31.75-38.05,53.18-50.49,8.25,2.39,16.22,5.4,23.86,9.04ZM91.86,229.78c-1.21,8.24-1.86,16.66-1.86,25.22,0,16.83,2.47,33.08,6.98,48.47-8.54,10.84-15.8,22.71-21.57,35.41-3.06-2.4-6.05-4.88-8.92-7.5-.95-7-1.49-14.12-1.49-21.38,0-27.29,6.99-52.98,19.25-75.39,2.48-1.69,5.03-3.29,7.61-4.84ZM50.1,313.97c-6.05-7.46-11.45-15.47-16.07-23.97,6.67-12.27,14.96-23.53,24.52-33.56-5.53,16.87-8.56,34.87-8.56,53.56,0,1.33.07,2.65.1,3.97ZM82.48,362.08c14.99,9.21,31.5,16.17,49.05,20.46-5.23,15.53-8.31,32.03-8.88,49.16-18.58-15.27-33.58-34.73-43.64-56.89.99-4.31,2.13-8.56,3.47-12.73ZM139.26,461.03c24.48,13.55,52.57,21.32,82.44,21.45,10.36,6.69,21.46,12.32,33.17,16.69-23.98,14.78-52.2,23.33-82.38,23.33-3.44,0-6.84-.15-10.23-.37-11.64-18.18-19.67-38.88-23.01-61.1ZM315,495c-9.09,0-17.98-.82-26.65-2.3,13.33-12.11,24.73-26.29,33.76-42,24.43-17.34,44.16-40.86,56.9-68.28,2.74-.68,5.44-1.42,8.13-2.23,1.86,9.66,2.87,19.62,2.87,29.81,0,26.98-6.83,52.39-18.83,74.61-17.46,6.69-36.39,10.39-56.17,10.39ZM401.46,375.16c10.64-4.26,20.75-9.55,30.23-15.75,9.92,17.3,16.65,36.65,19.39,57.25-14.08,24.11-34.37,44.15-58.67,57.93,8.09-19.96,12.59-41.75,12.59-64.58,0-11.93-1.22-23.59-3.54-34.84ZM399.37,359.82c5.84-7.6,11.06-15.7,15.58-24.23,3.05,3.59,5.94,7.32,8.67,11.17-7.65,5.02-15.76,9.41-24.26,13.05ZM421.92,320.82c1.01-2.44,1.97-4.9,2.87-7.39,12.49-14.28,22.67-30.61,29.95-48.44,6.08,11.67,10.73,24.19,13.75,37.34-9.03,13.5-20.09,25.51-32.74,35.63-4.26-6-8.86-11.74-13.83-17.14ZM255,15c23.46,0,45.71,5.19,65.73,14.43-8.4-1.26-16.99-1.93-25.73-1.93-29.17,0-56.65,7.3-80.76,20.13-13.37-3.34-27.35-5.13-41.74-5.13-2.19,0-4.36.08-6.52.17,25.34-17.43,56.01-27.67,89.02-27.67ZM15,215c0-67.95,43.26-125.99,103.68-148.02-22.65,29.19-36.18,65.8-36.18,105.52,0,11.17,1.11,22.08,3.14,32.67-4.66,6.07-8.92,12.46-12.75,19.13-18.57,13.18-34.42,29.93-46.56,49.26-7.28-18.12-11.33-37.87-11.33-58.56ZM15,365c0-20.69,4.05-40.44,11.33-58.56,7.39,11.78,16.17,22.59,26.1,32.24,2.21,13.13,5.88,25.77,10.88,37.72-2.16,10.87-3.31,22.1-3.31,33.6,0,30.29,7.87,58.76,21.64,83.53-40.28-28.56-66.64-75.51-66.64-128.53ZM153.85,536.48c4.13,5.88,8.59,11.51,13.4,16.82-11.71-5.36-22.66-12.1-32.63-20.03,6.29,1.41,12.7,2.51,19.22,3.22ZM295,595c-21.82,0-42.62-4.47-61.53-12.52,63.15-.35,118.34-34.81,148.11-85.86,28.18-11.83,52.56-30.95,70.82-54.97-2.21,84.93-71.94,153.35-157.39,153.35ZM443.92,350.61c10.3-8.1,19.66-17.34,27.89-27.54.43,4.76.69,9.56.69,14.43,0,19.93-3.76,39-10.55,56.56-4.02-15.43-10.16-30.01-18.03-43.46Z"/></svg>